<?xml version="1.0" encoding="utf-8"?>
<!-- Generator: Adobe Illustrator 27.5.0, SVG Export Plug-In . SVG Version: 6.00 Build 0)  -->
<svg version="1.1" id="Layer_1" xmlns="http://www.w3.org/2000/svg" xmlns:xlink="http://www.w3.org/1999/xlink" x="0px" y="0px"
	 viewBox="-17.471 -35.135 83.736 73.248" style="enable-background:new -17.471 -35.135 83.736 73.248;" xml:space="preserve">
<rect x="-17.472" y="-35.135" style="fill:#FFFFFF;" width="83.737" height="73.248"/>
<g>
	<g>
		<defs>
			<filter id="Adobe_OpacityMaskFilter" filterUnits="userSpaceOnUse" x="-4.137" y="-5.302" width="27.409" height="28.686">
				<feColorMatrix  type="matrix" values="1 0 0 0 0  0 1 0 0 0  0 0 1 0 0  0 0 0 1 0"/>
			</filter>
		</defs>
		<mask maskUnits="userSpaceOnUse" x="-4.137" y="-5.302" width="27.409" height="28.686" id="SVGID_1_">
			<g style="filter:url(#Adobe_OpacityMaskFilter);">
				
					<linearGradient id="SVGID_00000108275034136056070820000018141718556527868580_" gradientUnits="userSpaceOnUse" x1="-40.7162" y1="-5.6708" x2="-39.9897" y2="-20.634" gradientTransform="matrix(0.7118 -0.1392 0.151 0.7719 41.3376 19.888)">
					<stop  offset="0.2615" style="stop-color:#000000"/>
					<stop  offset="0.3242" style="stop-color:#0A0A0A"/>
					<stop  offset="0.4296" style="stop-color:#242424"/>
					<stop  offset="0.5646" style="stop-color:#4E4E4E"/>
					<stop  offset="0.724" style="stop-color:#898989"/>
					<stop  offset="0.9019" style="stop-color:#D3D3D3"/>
					<stop  offset="1" style="stop-color:#FFFFFF"/>
				</linearGradient>
				<polygon style="fill:url(#SVGID_00000108275034136056070820000018141718556527868580_);" points="26.871,22.115 -1.249,27.498 
					-7.017,-0.79 21.102,-6.161 				"/>
			</g>
		</mask>
		
			<radialGradient id="SVGID_00000047745136268445064840000017850737589465299646_" cx="-17.1663" cy="-2.7129" r="4.9382" gradientTransform="matrix(2.6228 -0.5018 0.564 2.7649 55.6321 7.7663)" gradientUnits="userSpaceOnUse">
			<stop  offset="0.6343" style="stop-color:#000000"/>
			<stop  offset="0.8298" style="stop-color:#FFFFFF"/>
		</radialGradient>
		<path style="mask:url(#SVGID_1_);fill:url(#SVGID_00000047745136268445064840000017850737589465299646_);" d="M22.965,6.469
			c1.585,7.813-3.121,15.269-10.517,16.681c-7.39,1.419-14.685-3.747-16.276-11.538c-1.591-7.8,3.117-15.27,10.51-16.681
			C14.088-6.48,21.375-1.317,22.965,6.469z"/>
		<path style="fill:#FFFFFF;" d="M19.601-0.727c1.113,5.492-1.81,13.734-7.893,14.926C3.163,15.872-2.079,10.715-3.202,5.236
			C-4.314-0.247,2.76-4.878,7.966-5.885C13.163-6.88,18.48-6.209,19.601-0.727z"/>
	</g>
	<g>
		<path style="fill:#FFFFFF;" d="M18.672-3.905c-0.023-0.093-0.058-0.174-0.081-0.266c-0.255-0.904-0.382-1.865-0.382-2.86
			c0-1.181,0.232-2.247,0.707-3.207c0.464-0.974,1.136-1.795,1.993-2.479c0.87-0.695,1.9-1.228,3.105-1.598
			c1.206-0.371,2.549-0.556,4.02-0.556c0.893,0,1.727,0.07,2.503,0.22c0.789,0.139,1.53,0.382,2.237,0.694
			c0.706,0.325,1.402,0.73,2.073,1.239c0.673,0.498,1.345,1.101,2.005,1.795c0.243,0.278,0.371,0.544,0.383,0.788
			c0,0.254-0.162,0.52-0.487,0.798c-0.556,0.463-1.078,0.903-1.575,1.343c-0.511,0.441-1.032,0.927-1.565,1.472
			c-0.172,0.139-0.347,0.22-0.509,0.254c-0.174,0.035-0.336,0.035-0.499,0c-0.15-0.046-0.301-0.115-0.439-0.219
			c-0.139-0.093-0.267-0.22-0.383-0.359c-0.498-0.556-1.066-0.926-1.703-1.112c-0.637-0.197-1.228-0.289-1.785-0.289
			c-0.695,0-1.25,0.116-1.656,0.358c-0.104,0.058-0.196,0.128-0.267,0.209h-6.095L18.672-3.905z"/>
		<path style="fill:#FFFFFF;" d="M14.721,1.133l3.881-10.515l0.938-1.216c0.301-0.382,0.394-0.752,0.626-0.915
			c0.243-0.151,0.567-0.243,0.984-0.232l5.006,0.093c0.416,0.012,0.73,0.058,0.938,0.15c0.208,0.105,0.36,0.232,0.429,0.405
			c0.068,0.174,0.08,0.359,0.035,0.58c-0.035,0.22-0.093,0.463-0.209,0.694L17.966,9.667c-0.128,0.267-0.336,0.462-0.556,0.648
			c-0.208,0.173-1.217,1.864-1.646,1.864h-1.042V1.133z"/>
		<polygon style="fill-rule:evenodd;clip-rule:evenodd;fill:#FFFFFF;" points="27.501,-6.846 28.011,-6.626 19.113,13.095 
			18.603,12.862 		"/>
		<path style="fill-rule:evenodd;clip-rule:evenodd;fill:#FFFFFF;" d="M4.096,4.259c0,0.846,0.116,1.563,0.348,2.143
			c0.231,0.591,0.544,1.065,0.927,1.435c0.382,0.372,0.822,0.638,1.32,0.811c0.51,0.175,1.032,0.255,1.576,0.255
			c0.567,0,1.112-0.104,1.622-0.301c0.498-0.197,0.95-0.486,1.333-0.88c3.07-3.231,5.028-11.974,7.009-15.332l0.834,11.776
			c0.139,1.992-0.29,3.66-0.88,5.025c-0.58,1.344-1.368,2.444-2.353,3.266c-0.997,0.823-2.143,1.414-3.441,1.771
			c-1.309,0.359-2.677,0.533-4.114,0.533c-1.437,0-2.804-0.186-4.113-0.556c-1.31-0.358-2.457-0.973-3.453-1.807
			c-0.985-0.833-1.773-1.922-2.353-3.276c-0.59-1.344-0.88-3-0.88-4.957v-14.393c0-0.186,0.058-0.359,0.197-0.51
			c0.128-0.15,0.291-0.231,0.476-0.231h5.121c0.174,0,0.347,0.069,0.544,0.208c0.186,0.15,0.278,0.324,0.278,0.533V4.259z"/>
		<path style="fill:#FFFFFF;" d="M39.783-9.904c0.012-0.058,0.046-0.139,0.104-0.22c0.07-0.081,0.14-0.15,0.232-0.22
			c0.093-0.069,0.185-0.127,0.29-0.163c0.104-0.046,0.196-0.057,0.289-0.057h4.368c0.196,0,0.359,0.057,0.498,0.173
			c0.128,0.127,0.232,0.232,0.302,0.324l0.429,0.973l8.957,23.09c0.093,0.231,0.068,0.418-0.058,0.556
			c-0.116,0.139-0.337,0.209-0.649,0.209h-4.89c-0.267,0-0.464-0.047-0.602-0.139c-0.139-0.105-0.255-0.255-0.336-0.486
			c-0.232-0.58-0.452-1.158-0.661-1.737c-0.22-0.567-0.439-1.146-0.648-1.726h-9.061c-0.221,0.579-0.429,1.158-0.661,1.726
			c-0.22,0.579-0.44,1.157-0.648,1.737c-0.151,0.416-0.44,0.625-0.881,0.625h-5.028c-0.209,0-0.395-0.047-0.533-0.162
			c-0.139-0.116-0.174-0.289-0.08-0.51L39.783-9.904z M42.877-2.608c-0.209,0.59-0.43,1.204-0.649,1.875
			c-0.22,0.672-0.44,1.355-0.66,2.039c-0.221,0.671-0.428,1.343-0.648,2.015c-0.221,0.659-0.453,1.284-0.66,1.864h5.236
			L42.877-2.608z"/>
		<path style="fill:#FFFFFF;" d="M22.751,4.629c0.278,0.233,0.556,0.429,0.858,0.603c0.44,0.267,0.87,0.475,1.275,0.637
			c0.417,0.162,0.776,0.278,1.089,0.358c0.313,0.071,0.521,0.105,0.637,0.105c0.268,0,0.615-0.023,1.031-0.034
			c0.418-0.024,0.823-0.093,1.205-0.197c0.383-0.105,0.707-0.278,0.985-0.522C30.109,5.347,30.247,5,30.247,4.56
			c0-0.395-0.081-0.707-0.23-0.95c-0.164-0.232-0.384-0.429-0.685-0.591c-0.302-0.162-0.661-0.301-1.089-0.428
			c-0.441-0.128-0.928-0.278-1.461-0.451c-0.961-0.256-1.83-0.545-2.606-0.858l2.896-6.831c0.104,0.046,0.209,0.092,0.313,0.127
			c0.358,0.127,0.752,0.231,1.147,0.301c0.406,0.081,0.775,0.173,1.112,0.278c1.274,0.405,2.444,0.856,3.512,1.331
			c1.065,0.486,1.98,1.077,2.769,1.771c0.775,0.706,1.391,1.54,1.818,2.525c0.43,0.973,0.639,2.166,0.639,3.566
			c0,1.401-0.267,2.651-0.836,3.764c-0.556,1.1-1.331,2.025-2.305,2.779c-0.975,0.752-2.133,1.332-3.477,1.725
			c-1.333,0.394-2.78,0.591-4.322,0.591c-0.88,0-1.772-0.081-2.688-0.231c-0.904-0.15-1.785-0.417-2.63-0.752
			c-0.73-0.302-1.437-0.684-2.109-1.125L22.751,4.629z"/>
	</g>
	<g>
		<defs>
			<path id="SVGID_00000006705139551580304050000007325983804343777951_" d="M18.441-8.919c0.116-0.463,0.278-0.903,0.475-1.32
				c0.475-0.961,1.135-1.794,2.004-2.478c0.857-0.684,1.9-1.216,3.105-1.598c1.206-0.371,2.538-0.556,4.021-0.556
				c0.892,0,1.727,0.07,2.502,0.22c0.777,0.15,1.529,0.382,2.237,0.706c0.707,0.313,1.401,0.73,2.073,1.228
				c0.672,0.498,1.333,1.1,2.006,1.795c0.242,0.289,0.369,0.544,0.369,0.798c0.012,0.244-0.149,0.521-0.475,0.799
				c-0.556,0.452-1.078,0.903-1.588,1.344c-0.498,0.428-1.02,0.926-1.563,1.459c-0.161,0.139-0.337,0.231-0.51,0.266
				c-0.163,0.035-0.336,0.035-0.487-0.012c-0.149-0.034-0.301-0.115-0.451-0.208c-0.139-0.104-0.267-0.22-0.383-0.359
				c-0.486-0.556-1.055-0.926-1.691-1.123c-0.637-0.197-1.239-0.278-1.784-0.278c-0.696,0-1.251,0.116-1.668,0.359
				C26.54-7.819,26.446-7.75,26.365-7.68h-0.034L18.047,9.528C18.023,9.574,18,9.621,17.977,9.667l-0.012,0.022l0,0
				c-0.556,1.123-1.263,2.05-2.132,2.768c-0.996,0.822-2.132,1.414-3.441,1.771c-1.309,0.359-2.665,0.545-4.102,0.545
				c-1.436,0-2.804-0.186-4.113-0.556c-1.309-0.371-2.456-0.973-3.453-1.807c-0.997-0.833-1.773-1.935-2.364-3.276
				c-0.579-1.355-0.88-3-0.88-4.957v-14.393c0-0.197,0.069-0.359,0.197-0.521c0.139-0.151,0.29-0.232,0.487-0.232h5.121
				c0.162,0,0.348,0.081,0.533,0.22c0.186,0.139,0.278,0.313,0.278,0.533V4.27c0,0.834,0.127,1.552,0.359,2.143
				c0.232,0.579,0.533,1.054,0.916,1.424c0.382,0.37,0.822,0.649,1.332,0.811c0.51,0.174,1.031,0.266,1.576,0.266
				c0.567,0,1.112-0.104,1.61-0.301c0.51-0.209,0.962-0.498,1.332-0.892c1.356-1.413,2.491-3.903,3.5-6.521V1.143L18.441-8.919z
				 M22.89,4.745c0.232,0.186,0.475,0.348,0.718,0.486c0.452,0.267,0.881,0.476,1.286,0.638C25.3,6.03,25.67,6.158,25.984,6.226
				c0.301,0.07,0.521,0.105,0.637,0.105c0.267,0,0.614-0.012,1.031-0.035c0.418-0.023,0.812-0.081,1.194-0.186
				c0.382-0.115,0.718-0.277,0.995-0.522c0.279-0.242,0.406-0.578,0.406-1.018c0-0.394-0.07-0.719-0.231-0.95
				c-0.15-0.231-0.383-0.429-0.684-0.591c-0.29-0.174-0.649-0.313-1.089-0.439c-0.43-0.128-0.916-0.278-1.461-0.44
				c-0.869-0.231-1.657-0.486-2.375-0.776L22.89,4.745z M27.467-5.387c0.335,0.116,0.695,0.208,1.077,0.278
				c0.406,0.081,0.777,0.173,1.112,0.266c1.274,0.417,2.444,0.857,3.511,1.343c1.055,0.475,1.982,1.065,2.758,1.772
				c0.185,0.163,0.348,0.324,0.51,0.498l3.349-8.662c0.012-0.07,0.058-0.139,0.116-0.22c0.058-0.081,0.139-0.162,0.23-0.22
				c0.082-0.07,0.187-0.127,0.291-0.173c0.092-0.035,0.196-0.058,0.289-0.058h4.357c0.196,0,0.358,0.058,0.498,0.186
				c0.139,0.115,0.243,0.22,0.313,0.312l0.417,0.973l8.957,23.103c0.093,0.219,0.08,0.404-0.047,0.544
				c-0.127,0.15-0.347,0.22-0.648,0.22h-4.901c-0.255,0-0.452-0.047-0.602-0.15c-0.139-0.093-0.255-0.255-0.336-0.475
				c-0.221-0.591-0.44-1.17-0.661-1.737c-0.22-0.579-0.429-1.145-0.648-1.726h-9.061c-0.209,0.58-0.429,1.146-0.648,1.726
				c-0.221,0.567-0.441,1.147-0.661,1.737c-0.15,0.416-0.44,0.625-0.869,0.625H31.14c-0.221,0-0.394-0.059-0.533-0.174
				c-0.15-0.116-0.174-0.277-0.081-0.51l0.487-1.262c-1.125,0.255-2.307,0.394-3.57,0.394c-0.88,0-1.772-0.082-2.676-0.244
				c-0.903-0.15-1.784-0.405-2.642-0.752c-0.73-0.302-1.436-0.673-2.109-1.124l0.069-0.14l-0.961,2.131l-0.521-0.22l8.91-19.72
				l0.51,0.232L27.467-5.387z M42.889-2.596c-0.22,0.579-0.429,1.204-0.648,1.875c-0.232,0.672-0.452,1.344-0.661,2.027
				c-0.22,0.682-0.439,1.353-0.66,2.015c-0.221,0.671-0.44,1.297-0.66,1.876h5.236L42.889-2.596z"/>
		</defs>
		<clipPath id="SVGID_00000034794789794697961110000007697870379499417472_">
			<use xlink:href="#SVGID_00000006705139551580304050000007325983804343777951_"  style="overflow:visible;"/>
		</clipPath>
		<g style="clip-path:url(#SVGID_00000034794789794697961110000007697870379499417472_);">
			<rect x="-3.235" y="-14.77" style="fill-rule:evenodd;clip-rule:evenodd;fill:#FFFFFF;" width="66.472" height="34.532"/>
			<rect x="-3.235" y="-14.77" style="fill-rule:evenodd;clip-rule:evenodd;fill:#FEFEFE;" width="58.348" height="34.528"/>
			<rect x="-3.235" y="17.003" style="fill-rule:evenodd;clip-rule:evenodd;fill:#D02213;" width="66.472" height="2.755"/>
			<rect x="-3.235" y="11.713" style="fill-rule:evenodd;clip-rule:evenodd;fill:#D02213;" width="66.472" height="3.508"/>
			<rect x="-3.235" y="6.419" style="fill-rule:evenodd;clip-rule:evenodd;fill:#D02213;" width="66.472" height="2.756"/>
			<rect x="-3.235" y="1.131" style="fill-rule:evenodd;clip-rule:evenodd;fill:#D02213;" width="66.472" height="2.756"/>
			<rect x="-3.235" y="-4.167" style="fill-rule:evenodd;clip-rule:evenodd;fill:#D02213;" width="66.472" height="2.758"/>
			<rect x="-3.235" y="-9.456" style="fill-rule:evenodd;clip-rule:evenodd;fill:#D02213;" width="66.472" height="3.259"/>
			<rect x="-3.235" y="-15.411" style="fill-rule:evenodd;clip-rule:evenodd;fill:#D02213;" width="66.472" height="3.418"/>
			<rect x="-3.235" y="-14.77" style="fill-rule:evenodd;clip-rule:evenodd;fill:#392B91;" width="24.197" height="18.676"/>
			<polygon style="fill-rule:evenodd;clip-rule:evenodd;fill:#FEFEFE;" points="-1.243,-13.219 -0.937,-12.317 0.064,-12.317 
				-0.746,-11.762 -0.439,-10.86 -1.243,-11.417 -2.055,-10.86 -1.749,-11.762 -2.555,-12.317 -1.554,-12.317 			"/>
			<polygon style="fill-rule:evenodd;clip-rule:evenodd;fill:#FEFEFE;" points="1.645,-13.219 1.95,-12.317 2.949,-12.317 
				2.142,-11.762 2.448,-10.86 1.645,-11.417 0.833,-10.86 1.148,-11.762 0.337,-12.317 1.337,-12.317 			"/>
			<polygon style="fill-rule:evenodd;clip-rule:evenodd;fill:#FEFEFE;" points="4.532,-13.219 4.839,-12.317 5.836,-12.317 
				5.029,-11.762 5.335,-10.86 4.532,-11.417 3.72,-10.86 4.035,-11.762 3.224,-12.317 4.224,-12.317 			"/>
			<polygon style="fill-rule:evenodd;clip-rule:evenodd;fill:#FEFEFE;" points="7.418,-13.219 7.726,-12.317 8.724,-12.317 
				7.915,-11.762 8.223,-10.86 7.418,-11.417 6.608,-10.86 6.924,-11.762 6.11,-12.317 7.11,-12.317 			"/>
			<polygon style="fill-rule:evenodd;clip-rule:evenodd;fill:#FEFEFE;" points="10.307,-13.219 10.613,-12.317 11.612,-12.317 
				10.8,-11.762 11.115,-10.86 10.307,-11.417 9.495,-10.86 9.811,-11.762 8.999,-12.317 9.997,-12.317 			"/>
			<polygon style="fill-rule:evenodd;clip-rule:evenodd;fill:#FEFEFE;" points="13.191,-13.219 13.502,-12.317 14.499,-12.317 
				13.688,-11.762 14.002,-10.86 13.191,-11.417 12.384,-10.86 12.696,-11.762 11.887,-12.317 12.884,-12.317 			"/>
			<polygon style="fill-rule:evenodd;clip-rule:evenodd;fill:#FEFEFE;" points="16.078,-13.219 16.389,-12.317 17.387,-12.317 
				16.576,-11.762 16.89,-10.86 16.078,-11.417 15.271,-10.86 15.582,-11.762 14.775,-12.317 15.773,-12.317 			"/>
			<polygon style="fill-rule:evenodd;clip-rule:evenodd;fill:#FEFEFE;" points="18.967,-13.219 19.272,-12.317 20.275,-12.317 
				19.463,-11.762 19.778,-10.86 18.967,-11.417 18.154,-10.86 18.469,-11.762 17.657,-12.317 18.66,-12.317 			"/>
			<polygon style="fill-rule:evenodd;clip-rule:evenodd;fill:#FEFEFE;" points="-1.243,-9.912 -0.937,-9.009 0.064,-9.009 
				-0.746,-8.455 -0.439,-7.553 -1.243,-8.118 -2.055,-7.553 -1.749,-8.455 -2.555,-9.009 -1.554,-9.009 			"/>
			<polygon style="fill-rule:evenodd;clip-rule:evenodd;fill:#FEFEFE;" points="1.645,-9.912 1.95,-9.009 2.949,-9.009 
				2.142,-8.455 2.448,-7.553 1.645,-8.118 0.833,-7.553 1.148,-8.455 0.337,-9.009 1.337,-9.009 			"/>
			<polygon style="fill-rule:evenodd;clip-rule:evenodd;fill:#FEFEFE;" points="4.532,-9.912 4.839,-9.009 5.836,-9.009 
				5.029,-8.455 5.335,-7.553 4.532,-8.118 3.72,-7.553 4.035,-8.455 3.224,-9.009 4.224,-9.009 			"/>
			<polygon style="fill-rule:evenodd;clip-rule:evenodd;fill:#FEFEFE;" points="7.418,-9.912 7.726,-9.009 8.724,-9.009 
				7.915,-8.455 8.223,-7.553 7.418,-8.118 6.608,-7.553 6.924,-8.455 6.11,-9.009 7.11,-9.009 			"/>
			<polygon style="fill-rule:evenodd;clip-rule:evenodd;fill:#FEFEFE;" points="10.307,-9.912 10.613,-9.009 11.612,-9.009 
				10.8,-8.455 11.115,-7.553 10.307,-8.118 9.495,-7.553 9.811,-8.455 8.999,-9.009 9.997,-9.009 			"/>
			<polygon style="fill-rule:evenodd;clip-rule:evenodd;fill:#FEFEFE;" points="13.191,-9.912 13.502,-9.009 14.499,-9.009 
				13.688,-8.455 14.002,-7.553 13.191,-8.118 12.384,-7.553 12.696,-8.455 11.887,-9.009 12.884,-9.009 			"/>
			<polygon style="fill-rule:evenodd;clip-rule:evenodd;fill:#FEFEFE;" points="16.078,-9.912 16.389,-9.009 17.387,-9.009 
				16.576,-8.455 16.89,-7.553 16.078,-8.118 15.271,-7.553 15.582,-8.455 14.775,-9.009 15.773,-9.009 			"/>
			<polygon style="fill-rule:evenodd;clip-rule:evenodd;fill:#FEFEFE;" points="18.967,-9.912 19.272,-9.009 20.275,-9.009 
				19.463,-8.455 19.778,-7.553 18.967,-8.118 18.154,-7.553 18.469,-8.455 17.657,-9.009 18.66,-9.009 			"/>
			<polygon style="fill-rule:evenodd;clip-rule:evenodd;fill:#FEFEFE;" points="-1.243,-6.611 -0.937,-5.711 0.064,-5.711 
				-0.746,-5.154 -0.439,-4.253 -1.243,-4.808 -2.055,-4.253 -1.749,-5.154 -2.555,-5.711 -1.554,-5.711 			"/>
			<polygon style="fill-rule:evenodd;clip-rule:evenodd;fill:#FEFEFE;" points="1.645,-6.611 1.95,-5.711 2.949,-5.711 
				2.142,-5.154 2.448,-4.253 1.645,-4.808 0.833,-4.253 1.148,-5.154 0.337,-5.711 1.337,-5.711 			"/>
			<polygon style="fill-rule:evenodd;clip-rule:evenodd;fill:#FEFEFE;" points="4.532,-6.611 4.839,-5.711 5.836,-5.711 
				5.029,-5.154 5.335,-4.253 4.532,-4.808 3.72,-4.253 4.035,-5.154 3.224,-5.711 4.224,-5.711 			"/>
			<polygon style="fill-rule:evenodd;clip-rule:evenodd;fill:#FEFEFE;" points="7.418,-6.611 7.726,-5.711 8.724,-5.711 
				7.915,-5.154 8.223,-4.253 7.418,-4.808 6.608,-4.253 6.924,-5.154 6.11,-5.711 7.11,-5.711 			"/>
			<polygon style="fill-rule:evenodd;clip-rule:evenodd;fill:#FEFEFE;" points="10.307,-6.611 10.613,-5.711 11.612,-5.711 
				10.8,-5.154 11.115,-4.253 10.307,-4.808 9.495,-4.253 9.811,-5.154 8.999,-5.711 9.997,-5.711 			"/>
			<polygon style="fill-rule:evenodd;clip-rule:evenodd;fill:#FEFEFE;" points="13.191,-6.611 13.502,-5.711 14.499,-5.711 
				13.688,-5.154 14.002,-4.253 13.191,-4.808 12.384,-4.253 12.696,-5.154 11.887,-5.711 12.884,-5.711 			"/>
			<polygon style="fill-rule:evenodd;clip-rule:evenodd;fill:#FEFEFE;" points="16.078,-6.611 16.389,-5.711 17.387,-5.711 
				16.576,-5.154 16.89,-4.253 16.078,-4.808 15.271,-4.253 15.582,-5.154 14.775,-5.711 15.773,-5.711 			"/>
			<polygon style="fill-rule:evenodd;clip-rule:evenodd;fill:#FEFEFE;" points="18.967,-6.611 19.272,-5.711 20.275,-5.711 
				19.463,-5.154 19.778,-4.253 18.967,-4.808 18.154,-4.253 18.469,-5.154 17.657,-5.711 18.66,-5.711 			"/>
			<polygon style="fill-rule:evenodd;clip-rule:evenodd;fill:#FEFEFE;" points="-1.243,-3.31 -0.937,-2.404 0.064,-2.41 
				-0.746,-1.852 -0.439,-0.952 -1.243,-1.509 -2.055,-0.952 -1.749,-1.852 -2.555,-2.41 -1.554,-2.404 			"/>
			<polygon style="fill-rule:evenodd;clip-rule:evenodd;fill:#FEFEFE;" points="1.645,-3.31 1.95,-2.404 2.949,-2.41 2.142,-1.852 
				2.448,-0.952 1.645,-1.509 0.833,-0.952 1.148,-1.852 0.337,-2.41 1.337,-2.404 			"/>
			<polygon style="fill-rule:evenodd;clip-rule:evenodd;fill:#FEFEFE;" points="4.532,-3.31 4.839,-2.404 5.836,-2.41 5.029,-1.852 
				5.335,-0.952 4.532,-1.509 3.72,-0.952 4.035,-1.852 3.224,-2.41 4.224,-2.404 			"/>
			<polygon style="fill-rule:evenodd;clip-rule:evenodd;fill:#FEFEFE;" points="7.418,-3.31 7.726,-2.404 8.724,-2.41 7.915,-1.852 
				8.223,-0.952 7.418,-1.509 6.608,-0.952 6.924,-1.852 6.11,-2.41 7.11,-2.404 			"/>
			<polygon style="fill-rule:evenodd;clip-rule:evenodd;fill:#FEFEFE;" points="10.307,-3.31 10.613,-2.404 11.612,-2.41 
				10.8,-1.852 11.115,-0.952 10.307,-1.509 9.495,-0.952 9.811,-1.852 8.999,-2.41 9.997,-2.404 			"/>
			<polygon style="fill-rule:evenodd;clip-rule:evenodd;fill:#FEFEFE;" points="13.191,-3.31 13.502,-2.404 14.499,-2.41 
				13.688,-1.852 14.002,-0.952 13.191,-1.509 12.384,-0.952 12.696,-1.852 11.887,-2.41 12.884,-2.404 			"/>
			<polygon style="fill-rule:evenodd;clip-rule:evenodd;fill:#FEFEFE;" points="16.078,-3.31 16.389,-2.404 17.387,-2.41 
				16.576,-1.852 16.89,-0.952 16.078,-1.509 15.271,-0.952 15.582,-1.852 14.775,-2.41 15.773,-2.404 			"/>
			<polygon style="fill-rule:evenodd;clip-rule:evenodd;fill:#FEFEFE;" points="18.967,-3.31 19.272,-2.404 20.275,-2.41 
				19.463,-1.852 19.778,-0.952 18.967,-1.509 18.154,-0.952 18.469,-1.852 17.657,-2.41 18.66,-2.404 			"/>
			<polygon style="fill-rule:evenodd;clip-rule:evenodd;fill:#FEFEFE;" points="-1.243,-0.003 -0.937,0.896 0.064,0.896 
				-0.746,1.454 -0.439,2.355 -1.243,1.794 -2.055,2.355 -1.749,1.454 -2.555,0.896 -1.554,0.896 			"/>
			<polygon style="fill-rule:evenodd;clip-rule:evenodd;fill:#FEFEFE;" points="1.645,-0.003 1.95,0.896 2.949,0.896 2.142,1.454 
				2.448,2.355 1.645,1.794 0.833,2.355 1.148,1.454 0.337,0.896 1.337,0.896 			"/>
			<polygon style="fill-rule:evenodd;clip-rule:evenodd;fill:#FEFEFE;" points="4.532,-0.003 4.839,0.896 5.836,0.896 5.029,1.454 
				5.335,2.355 4.532,1.794 3.72,2.355 4.035,1.454 3.224,0.896 4.224,0.896 			"/>
			<polygon style="fill-rule:evenodd;clip-rule:evenodd;fill:#FEFEFE;" points="7.418,-0.003 7.726,0.896 8.724,0.896 7.915,1.454 
				8.223,2.355 7.418,1.794 6.608,2.355 6.924,1.454 6.11,0.896 7.11,0.896 			"/>
			<polygon style="fill-rule:evenodd;clip-rule:evenodd;fill:#FEFEFE;" points="10.307,-0.003 10.613,0.896 11.612,0.896 
				10.8,1.454 11.115,2.355 10.307,1.794 9.495,2.355 9.811,1.454 8.999,0.896 9.997,0.896 			"/>
			<polygon style="fill-rule:evenodd;clip-rule:evenodd;fill:#FEFEFE;" points="13.191,-0.003 13.502,0.896 14.499,0.896 
				13.688,1.454 14.002,2.355 13.191,1.794 12.384,2.355 12.696,1.454 11.887,0.896 12.884,0.896 			"/>
			<polygon style="fill-rule:evenodd;clip-rule:evenodd;fill:#FEFEFE;" points="16.078,-0.003 16.389,0.896 17.387,0.896 
				16.576,1.454 16.89,2.355 16.078,1.794 15.271,2.355 15.582,1.454 14.775,0.896 15.773,0.896 			"/>
			<polygon style="fill-rule:evenodd;clip-rule:evenodd;fill:#FEFEFE;" points="18.967,-0.003 19.272,0.896 20.275,0.896 
				19.463,1.454 19.778,2.355 18.967,1.794 18.154,2.355 18.469,1.454 17.657,0.896 18.66,0.896 			"/>
			<rect x="-3.235" y="-14.77" style="fill-rule:evenodd;clip-rule:evenodd;fill:none;" width="58.348" height="34.528"/>
		</g>
	</g>
	
		<linearGradient id="SVGID_00000002348384622567752000000014395278442270324387_" gradientUnits="userSpaceOnUse" x1="32.7683" y1="6.494" x2="17.3181" y2="0.0422">
		<stop  offset="0.1214" style="stop-color:#FFFFFF"/>
		<stop  offset="0.6828" style="stop-color:#000000"/>
	</linearGradient>
	<path style="fill:url(#SVGID_00000002348384622567752000000014395278442270324387_);" d="M22.751,4.629
		c0.278,0.233,0.556,0.429,0.858,0.603c0.44,0.267,0.87,0.475,1.275,0.637c0.417,0.162,0.776,0.278,1.089,0.358
		c0.313,0.071,0.521,0.105,0.637,0.105c0.268,0,0.615-0.023,1.031-0.034c0.418-0.024,0.823-0.093,1.205-0.197
		c0.383-0.105,0.707-0.278,0.985-0.522C30.109,5.347,30.247,5,30.247,4.56c0-0.395-0.081-0.707-0.23-0.95
		c-0.164-0.232-0.384-0.429-0.685-0.591c-0.302-0.162-0.661-0.301-1.089-0.428c-0.441-0.128-0.928-0.278-1.461-0.451
		c-0.961-0.256-1.83-0.545-2.606-0.858l2.896-6.831c0.104,0.046,0.209,0.092,0.313,0.127c0.358,0.127,0.752,0.231,1.147,0.301
		c0.406,0.081,0.775,0.173,1.112,0.278c1.274,0.405,2.444,0.856,3.512,1.331c1.065,0.486,1.98,1.077,2.769,1.771
		c0.775,0.706,1.391,1.54,1.818,2.525c0.43,0.973,0.639,2.166,0.639,3.566c0,1.401-0.267,2.651-0.836,3.764
		c-0.556,1.1-1.331,2.025-2.305,2.779c-0.975,0.752-2.133,1.332-3.477,1.725c-1.333,0.394-2.78,0.591-4.322,0.591
		c-0.88,0-1.772-0.081-2.688-0.231c-0.904-0.15-1.785-0.417-2.63-0.752c-0.73-0.302-1.437-0.684-2.109-1.125L22.751,4.629z"/>
	<polygon style="fill-rule:evenodd;clip-rule:evenodd;fill:#D02213;" points="27.501,-6.846 28.011,-6.626 19.113,13.095 
		18.603,12.862 	"/>
	<g>
		<defs>
			
				<filter id="Adobe_OpacityMaskFilter_00000016047533106358173680000000656069697836064903_" filterUnits="userSpaceOnUse" x="18.365" y="-5.869" width="29.558" height="21.281">
				<feColorMatrix  type="matrix" values="1 0 0 0 0  0 1 0 0 0  0 0 1 0 0  0 0 0 1 0"/>
			</filter>
		</defs>
		
			<mask maskUnits="userSpaceOnUse" x="18.365" y="-5.869" width="29.558" height="21.281" id="SVGID_00000150081426444264180270000017455112830574344076_">
			<g style="filter:url(#Adobe_OpacityMaskFilter_00000016047533106358173680000000656069697836064903_);">
				
					<linearGradient id="SVGID_00000067919464355157034010000011950567239735064201_" gradientUnits="userSpaceOnUse" x1="-17.052" y1="32.7218" x2="-16.3006" y2="17.2465" gradientTransform="matrix(0.1047 -0.528 0.7715 0.1529 22.0815 -6.4375)">
					<stop  offset="0.2615" style="stop-color:#000000"/>
					<stop  offset="0.3242" style="stop-color:#0A0A0A"/>
					<stop  offset="0.4296" style="stop-color:#242424"/>
					<stop  offset="0.5646" style="stop-color:#4E4E4E"/>
					<stop  offset="0.724" style="stop-color:#898989"/>
					<stop  offset="0.9019" style="stop-color:#D3D3D3"/>
					<stop  offset="1" style="stop-color:#FFFFFF"/>
				</linearGradient>
				<polygon style="fill:url(#SVGID_00000067919464355157034010000011950567239735064201_);" points="51.694,-2.875 47.301,18.659 
					17.979,13.026 22.382,-8.503 				"/>
			</g>
		</mask>
		
			<radialGradient id="SVGID_00000011729857735202077710000017975427487039068802_" cx="-11.0621" cy="7.8379" r="5.1073" gradientTransform="matrix(0.3963 -1.942 2.7711 0.5321 15.4869 -20.5931)" gradientUnits="userSpaceOnUse">
			<stop  offset="0.6343" style="stop-color:#000000"/>
			<stop  offset="0.8298" style="stop-color:#FFFFFF"/>
		</radialGradient>
		
			<path style="mask:url(#SVGID_00000150081426444264180270000017455112830574344076_);fill:url(#SVGID_00000011729857735202077710000017975427487039068802_);" d="
			M35.23-5.49c8.097,1.561,13.7,7.407,12.541,13.069c-1.15,5.661-8.635,9.004-16.711,7.454C22.974,13.48,17.358,7.629,18.516,1.969
			C19.681-3.7,27.159-7.038,35.23-5.49z"/>
		<path style="fill:#FFFFFF;" d="M30.398-4.143c5.69,1.099,9.084,4.666,8.466,9.18c-0.813,5.93-8.386,9.219-14.065,8.133
			c-5.682-1.097-7.434-8.389-6.632-12.379C18.978-3.189,24.715-5.231,30.398-4.143z"/>
	</g>
</g>
</svg>
